<?xml version="1.0" standalone="no"?>
<!DOCTYPE svg PUBLIC "-//W3C//DTD SVG 20010904//EN"
 "http://www.w3.org/TR/2001/REC-SVG-20010904/DTD/svg10.dtd">
<svg version="1.0" xmlns="http://www.w3.org/2000/svg"
 width="690.000000pt" height="690.000000pt" viewBox="0 0 690.000000 690.000000"
 preserveAspectRatio="xMidYMid meet">

<g transform="translate(0.000000,690.000000) scale(0.100000,-0.100000)"
fill="#000000" stroke="none">
<path d="M4700 4438 c-72 -49 -113 -149 -113 -278 0 -119 49 -251 103 -280 20
-11 20 -18 18 -337 l-3 -326 -40 -12 -40 -12 43 -7 42 -8 0 -153 0 -153 -42
-17 c-96 -38 -199 -26 -326 37 -84 42 -207 142 -289 235 -148 168 -198 203
-327 230 -121 25 -264 -11 -373 -94 l-32 -25 -33 25 c-54 42 -156 85 -228 97
-132 22 -275 -25 -366 -122 -28 -29 -84 -89 -125 -132 -80 -85 -204 -183 -281
-222 -105 -53 -229 -65 -315 -29 l-33 14 0 154 0 155 38 9 37 10 -37 8 -38 7
0 312 0 312 31 30 c71 68 91 156 87 389 -3 134 -5 160 -18 160 -13 0 -15 -24
-18 -147 l-3 -148 -29 0 -30 0 0 151 c0 138 -1 150 -17 147 -16 -3 -18 -20
-21 -151 l-3 -147 -24 0 -24 0 -3 147 c-3 131 -5 148 -20 151 -16 3 -18 -11
-20 -145 l-3 -148 -27 -3 -27 -3 -3 148 c-3 124 -5 148 -18 148 -13 0 -15 -29
-15 -205 l0 -206 33 -67 c19 -37 44 -75 58 -83 l24 -16 0 -304 0 -304 -27 0
c-82 0 -153 -44 -174 -108 -16 -50 -5 -170 25 -267 85 -272 306 -425 616 -425
216 0 470 61 685 166 127 61 224 131 297 214 l51 58 43 -52 c110 -135 321
-254 579 -325 511 -140 860 -34 1003 306 29 69 52 180 52 254 0 108 -45 161
-148 175 l-52 7 0 314 0 315 40 45 c47 54 70 120 77 223 14 210 -107 382 -217
308z m-2852 -1435 l-3 -58 -27 46 c-17 28 -28 60 -28 83 0 27 7 44 28 64 l27
27 3 -52 c2 -29 2 -78 0 -110z m2984 130 c30 -34 30 -61 4 -118 -14 -30 -27
-55 -30 -55 -4 0 -6 43 -6 95 0 52 4 95 8 95 5 0 16 -8 24 -17z"/>
<path d="M2520 2160 c-43 -10 -80 -52 -80 -89 0 -43 34 -78 101 -102 66 -24
86 -46 65 -74 -10 -15 -22 -17 -62 -12 -103 14 -99 14 -102 -15 -3 -23 2 -30
25 -39 38 -15 143 -15 170 0 32 17 56 66 48 101 -8 37 -31 57 -102 85 -63 26
-80 43 -69 70 5 15 15 17 64 13 31 -3 65 -9 75 -13 14 -6 17 -2 17 28 0 31 -3
36 -30 41 -65 13 -86 14 -120 6z"/>
<path d="M1870 1991 l0 -171 35 0 35 0 0 65 c0 64 0 65 28 65 23 0 32 -9 61
-65 31 -61 35 -65 67 -65 19 0 34 3 34 6 0 3 -16 35 -37 71 -33 60 -35 66 -19
75 26 14 47 72 40 107 -4 16 -17 40 -31 53 -21 20 -37 23 -119 26 l-94 4 0
-171z m165 99 c40 -33 0 -90 -62 -90 l-33 0 0 56 0 57 40 -6 c23 -3 47 -11 55
-17z"/>
<path d="M2180 1990 l0 -170 110 0 110 0 0 30 0 30 -80 0 -80 0 0 45 0 45 60
0 60 0 0 30 0 30 -60 0 -60 0 0 35 0 35 80 0 80 0 0 30 0 30 -110 0 -110 0 0
-170z"/>
<path d="M2710 2130 c0 -29 2 -30 45 -30 l45 0 0 -140 0 -140 35 0 35 0 0 140
0 140 45 0 c43 0 45 1 45 30 l0 30 -125 0 -125 0 0 -30z"/>
<path d="M3008 1997 c-32 -90 -58 -166 -58 -170 0 -4 13 -7 30 -7 25 0 31 5
41 40 l12 40 62 0 62 0 16 -40 c13 -34 20 -40 46 -40 l30 0 -45 128 c-26 70
-53 146 -61 170 -13 37 -18 42 -46 42 l-32 0 -57 -163z m110 16 l20 -53 -40 0
c-30 0 -39 3 -35 14 3 8 11 32 18 55 7 23 13 40 15 39 1 -2 11 -27 22 -55z"/>
<path d="M3272 2038 c3 -133 13 -167 60 -201 37 -28 129 -28 166 0 47 34 57
68 60 201 l4 122 -36 0 -36 0 0 -118 c0 -144 -9 -162 -75 -162 -66 0 -75 18
-75 162 l0 118 -36 0 -36 0 4 -122z"/>
<path d="M3630 1990 l0 -170 30 0 30 0 0 65 0 65 29 0 c25 0 34 -8 63 -62 32
-58 37 -63 72 -66 l38 -3 -38 69 -38 69 27 32 c18 22 27 44 27 67 0 77 -41
104 -160 104 l-80 0 0 -170z m144 110 c21 -8 26 -16 26 -44 0 -41 -20 -56 -74
-56 l-36 0 0 55 c0 54 0 55 29 55 16 0 41 -4 55 -10z"/>
<path d="M3960 2003 c-30 -87 -56 -163 -58 -170 -2 -8 7 -13 27 -13 27 0 32 5
42 40 l12 40 62 0 62 0 16 -40 c13 -34 20 -40 46 -40 l30 0 -45 128 c-26 70
-53 146 -61 170 -13 37 -18 42 -46 42 l-32 0 -55 -157z m109 10 l21 -53 -41 0
c-31 0 -40 3 -36 14 3 8 11 32 18 55 7 23 13 40 15 39 1 -2 12 -27 23 -55z"/>
<path d="M4240 1990 l0 -170 30 0 29 0 3 112 3 112 74 -112 c65 -99 77 -112
102 -112 l29 0 0 170 0 170 -35 0 -34 0 -3 -102 -3 -101 -68 101 c-60 92 -70
102 -97 102 l-30 0 0 -170z"/>
<path d="M4550 2130 c0 -29 1 -30 50 -30 l50 0 0 -140 0 -140 30 0 30 0 0 140
0 140 50 0 c49 0 50 1 50 30 l0 30 -130 0 -130 0 0 -30z"/>
</g>
</svg>
